Coordinates
version=1
nRows=15
nColumns=34
inDegrees=yes

Units are S.I. units (second, meters, Newtons, ...)
If the header above contains a line with 'inDegrees', this indicates whether rotational values are in degrees (yes) or radians (no).

endheader
time	pelvis_tilt	pelvis_list	pelvis_rotation	pelvis_tx	pelvis_ty	pelvis_tz	hip_flexion_r	hip_adduction_r	hip_rotation_r	knee_angle_r	ankle_angle_r	subtalar_angle_r	mtp_angle_r	hip_flexion_l	hip_adduction_l	hip_rotation_l	knee_angle_l	ankle_angle_l	subtalar_angle_l	mtp_angle_l	lumbar_extension	lumbar_bending	lumbar_rotation	arm_flex_r	arm_add_r	arm_rot_r	elbow_flex_r	pro_sup_r	arm_flex_l	arm_add_l	arm_rot_l	elbow_flex_l	pro_sup_l
      0.00000000	      1.39257069	      0.74960818	     -0.32719984	      0.65865408	      1.14705326	     -0.08652906	     -0.61255374	     -6.57131869	     -9.87057118	      7.60797178	     -1.02539876	    -21.76354494	      0.00000000	     -1.72706561	     -2.63641685	     -6.72674031	      4.08886815	      1.49299525	    -17.13611671	      0.00000000	     -8.67304629	      4.04487918	     -1.57230994	     -0.85887563	     -6.48065748	      9.08409192	     23.27245607	     76.16092907	    -21.04719138	   -142.91050297	   -128.46806563	     54.59518970	     64.51312632
      0.01666670	     -3.69584256	     -0.22230529	     -1.06692452	      0.66272686	      1.13698391	     -0.08861555	      4.36295811	     -5.64196290	    -11.05320771	      6.90170281	      1.41069225	    -17.27993082	      0.00000000	      3.85605555	     -3.83546891	     -9.62214635	      3.44199744	      2.78146471	    -14.37196979	      0.00000000	     -2.43862791	      4.83429389	     -4.33980102	      0.35096974	     -7.73592366	      6.63781978	     24.52591031	     76.38653469	    -16.49103755	   -146.72278201	   -126.82867292	     39.20481715	     64.20164440
      0.03333330	     -4.89943465	     -0.49883374	     -1.05496565	      0.66347123	      1.13636219	     -0.08859878	      5.14588800	     -5.17274157	    -11.50598510	      5.95189874	      1.19803253	    -17.88548486	      0.00000000	      5.53396569	     -4.23277358	    -11.33251730	      3.70592695	      4.13692577	    -11.90010350	      0.00000000	     -0.97361829	      4.58648925	     -5.30906086	      1.34152469	     -7.38264501	      1.63630004	     25.19849341	     76.27256381	    -13.98539423	   -148.14175186	   -124.49974085	     38.26228487	     65.22490212
      0.05000000	     -4.87313968	     -0.49800066	     -0.91198236	      0.66365834	      1.13618996	     -0.08881613	      4.74213781	     -5.04678242	    -11.97287683	      5.13110672	      2.27504223	    -16.88649904	      0.00000000	      5.15500973	     -4.22920020	    -11.94391665	      2.84267613	      3.97551731	    -10.90242036	      0.00000000	     -0.90271720	      4.04449702	     -5.29719605	      0.78211177	     -6.20273138	     -3.70245533	     27.89114986	     77.39544470	    -14.44875013	   -149.50572870	   -124.81478567	     38.82813672	     67.76150428
      0.06666670	     -5.08413280	     -0.62798923	     -0.92838471	      0.66386802	      1.13534744	     -0.08885701	      4.72588296	     -4.76243138	    -11.92183342	      4.52247923	      2.62138476	    -17.05227034	      0.00000000	      5.23573507	     -4.41269651	    -11.97129280	      2.57320611	      4.02058406	    -10.72345356	      0.00000000	     -0.58546265	      4.03360612	     -5.59345905	      0.95371078	     -5.72750926	     -3.73005633	     28.13804603	     77.49879415	    -14.56246745	   -150.03934535	   -124.89137512	     39.00576373	     67.84795164
      0.08333330	     -5.05886882	     -0.62986044	     -0.88231488	      0.66379473	      1.13546753	     -0.08913554	      4.44845838	     -4.64086907	    -12.04934383	      4.13611227	      2.59853900	    -17.09512256	      0.00000000	      5.26347234	     -4.46438500	    -12.51408479	      2.73130985	      4.88584888	     -9.29262707	      0.00000000	     -0.28227730	      4.08490182	     -4.09777057	     -0.23259677	     -5.11220138	     -8.41769506	     29.01452613	     85.08614846	    -17.82928399	   -151.35762608	   -131.74341519	     39.34469113	     71.79798030
      0.10000000	     -5.51407726	     -0.60933727	     -0.84349599	      0.66371888	      1.13460797	     -0.08939899	      4.72312301	     -4.57995294	    -12.30939202	      3.73168426	      2.74809567	    -16.74427024	      0.00000000	      5.84289407	     -4.47670569	    -12.28080810	      2.92280735	      4.78728478	     -9.63870955	      0.00000000	      0.40268699	      4.22213657	     -4.05732436	     -0.49637330	     -5.12897139	     -8.14646341	     28.91608893	     86.42359475	    -18.02264756	   -151.32395569	   -131.16364585	     39.95056229	     72.34729629
      0.11666670	     -5.47122008	     -0.57306310	     -0.91704053	      0.66359505	      1.13449562	     -0.08949105	      4.42173165	     -4.54631933	    -12.25646790	      3.27631230	      2.72844183	    -16.66841393	      0.00000000	      5.94155726	     -4.49369279	    -12.40727374	      3.28541120	      4.84971759	     -9.74909674	      0.00000000	      0.52467715	      4.37843845	     -3.93108216	     -0.69054970	     -5.23643430	     -8.13916089	     28.75962323	     86.53050697	    -17.79673804	   -151.40737566	   -131.20208973	     40.08462217	     72.36636754
      0.13333330	     -5.28723701	     -0.63033330	     -0.96770594	      0.66346509	      1.13482231	     -0.08955208	      3.96961059	     -4.41910830	    -12.30099856	      2.83389636	      2.60982221	    -16.39825983	      0.00000000	      5.75288379	     -4.56699394	    -12.36469876	      3.40457846	      4.97685467	     -9.72174098	      0.00000000	      0.45861413	      4.64784354	     -3.50184700	     -1.28240076	     -5.52436741	     -7.72185627	     28.94903484	     88.31217492	    -18.07278098	   -151.36820249	   -130.91400088	     41.67441892	     72.57809527
      0.15000000	     -5.35014834	     -0.73035893	     -0.98072515	      0.66313733	      1.13470487	     -0.08951952	      3.95104125	     -4.28526242	    -12.25074902	      2.51362560	      2.62740995	    -16.32244059	      0.00000000	      5.83218810	     -4.71554495	    -12.46630499	      3.53798375	      4.96019213	     -9.78649828	      0.00000000	      0.63036110	      4.77480023	     -3.59198855	     -1.48572481	     -5.66902348	     -7.72434416	     28.99960084	     88.59884948	    -17.71932534	   -151.79421688	   -130.98114477	     42.29341287	     72.59217806
      0.16666670	     -5.28929436	     -0.71352182	     -0.86209498	      0.66293847	      1.13475619	     -0.08979840	      3.81900465	     -4.36039336	    -12.07868068	      2.47176852	      2.63532265	    -16.23985119	      0.00000000	      5.90149096	     -4.72987493	    -12.50268603	      3.84740943	      4.92433490	     -9.82415133	      0.00000000	      0.62740510	      4.86680095	     -3.72333961	     -1.64788819	     -5.91613459	     -7.75078934	     29.00360218	     88.67506772	    -17.80442880	   -151.96155032	   -130.91721929	     42.53241434	     72.60464935
      0.18333330	     -5.26608971	     -0.70537483	     -0.79145088	      0.66304935	      1.13486576	     -0.08986822	      3.79026667	     -4.41481139	    -12.05254066	      2.50501509	      2.63972533	    -16.23327265	      0.00000000	      5.86069183	     -4.72967174	    -12.50521067	      3.90093176	      4.92165684	     -9.82886070	      0.00000000	      0.70016145	      4.98464005	     -3.71521293	     -1.66686317	     -5.93094238	     -7.74771333	     29.01346405	     88.69115050	    -17.78680122	   -152.04028555	   -130.90693350	     42.61896500	     72.60753675
      0.20000000	     -5.37060679	     -0.88692354	     -0.45524798	      0.66318340	      1.13783147	     -0.09059816	      3.88553254	     -4.28633750	    -12.22646621	      2.64303362	      2.82921505	    -16.00572902	      0.00000000	      6.21974366	     -4.94839910	    -12.10265149	      4.28913390	      4.76011095	    -10.04188286	      0.00000000	      0.94419628	      5.44546424	     -3.73970007	     -2.28929042	     -6.33249121	     -7.18686707	     30.46197304	     90.53588772	    -19.03808785	   -150.48452291	   -131.29358195	     47.02031304	     72.74722510
      0.21666670	     -5.42426695	     -0.87066282	     -0.27309915	      0.65400022	      1.13673902	     -0.09426005	      3.97828054	     -4.35433356	    -12.25439461	      2.53520234	      2.79194380	    -16.01412600	      0.00000000	      6.50235296	     -4.88324332	    -12.03630256	      4.38173289	      4.66254266	     -9.97322822	      0.00000000	      0.75812310	      5.51373925	     -3.64706278	     -1.77951965	     -6.45282773	     -7.20788032	     30.63649769	     90.61974271	    -19.23161448	   -150.58115788	   -131.28722990	     47.06563234	     72.75514807
      0.23333330	     -5.46462376	     -0.93842285	      0.24717763	      0.65408063	      1.13656973	     -0.09496975	      3.98953776	     -4.34527754	    -12.48638334	      2.33588522	      2.60339896	    -16.32391902	      0.00000000	      6.90997254	     -4.88145464	    -11.56089020	      4.65717605	      4.35872906	    -10.19128166	      0.00000000	      0.87710835	      5.71162521	     -3.13025948	     -1.95494943	     -6.61338056	     -9.25919911	     31.02601174	    105.29635845	    -22.15370535	   -151.24441511	   -136.22719730	     48.01661251	     74.47972518
